#N canvas 620 536 450 300 10;
#X obj 14 245 ossia.client;
#X obj 14 267 print voxelstrack_client;
#X msg 14 224 connect oscquery ws://nusmuk.local:5678;
#X msg 266 65 0.903903 0.0212995;
#X obj 266 43 ossia.remote blob.0/position;
#X msg 266 111 0.0144444 0.431537;
#X obj 266 89 ossia.remote blob.1/position;
#X obj 14 204 loadbang;
#X obj 268 134 ossia.remote blob.2/position;
#X obj 267 180 ossia.remote blob.3/position;
#X obj 267 230 ossia.remote blob.4/position;
#X msg 267 252 0.560388 0.163039;
#X msg 267 202 0.378409 0.130156;
#X msg 267 156 0.331856 0.0129602;
#X connect 0 0 1 0;
#X connect 2 0 0 0;
#X connect 4 0 3 0;
#X connect 6 0 5 0;
#X connect 7 0 2 0;
#X connect 8 0 13 0;
#X connect 9 0 12 0;
#X connect 10 0 11 0;
