#N canvas 395 580 1197 600 10;
#X obj 25 538 ossia.client;
#X obj 25 560 print voxelstrack_client;
#X msg 25 517 connect oscquery ws://nusmuk.local:5678;
#X msg 62 256 0.434523 0.93571;
#X obj 62 234 ossia.remote blob.0/position;
#X msg 238 255 0.0236006 0.456001;
#X obj 238 233 ossia.remote blob.1/position;
#X obj 25 497 loadbang;
#X obj 413 232 ossia.remote blob.2/position;
#X obj 588 231 ossia.remote blob.3/position;
#X obj 763 232 ossia.remote blob.4/position;
#X msg 763 254 0.97523 0.482813;
#X msg 588 253 0.334919 0.226;
#X msg 412 254 0.975095 0.482664;
#X msg 101 400 3169;
#X obj 101 376 ossia.remote blob.0/id;
#X msg 1041 223 0 0 0 0;
#X msg 61 163 0 0 0 \$1;
#X obj 61 115 tgl 15 0 empty empty empty 17 7 0 10 -262144 -1 -1 0
1;
#X msg 243 162 0 0 0 \$1;
#X obj 243 114 tgl 15 0 empty empty empty 17 7 0 10 -262144 -1 -1 0
1;
#X msg 419 162 0 0 0 \$1;
#X obj 419 114 tgl 15 0 empty empty empty 17 7 0 10 -262144 -1 -1 0
1;
#X obj 131 18 key;
#X floatatom 312 40 5 0 0 0 - - -, f 5;
#X text 168 16 touches de raccourcis: a z i o p;
#X obj 130 41 sel 97 122 105 111 112;
#X msg 593 162 0 0 0 \$1;
#X obj 593 114 tgl 15 0 empty empty empty 17 7 0 10 -262144 -1 -1 0
1;
#X msg 769 162 0 0 0 \$1;
#X obj 769 114 tgl 15 0 empty empty empty 17 7 0 10 -262144 -1 -1 0
1;
#X msg 61 210 0 0 0 0;
#X obj 61 186 ossia.remote blob.0/color;
#X obj 243 187 ossia.remote blob.1/color;
#X obj 419 187 ossia.remote blob.2/color;
#X obj 593 187 ossia.remote blob.3/color;
#X obj 769 186 ossia.remote blob.4/color;
#X msg 243 209 0 0 0 0;
#X msg 419 209 0 0 0 0;
#X msg 593 209 0 0 0 0;
#X msg 769 208 0 0 0 0;
#X obj 1041 244 ossia.remote blob*/color;
#X obj 998 157 sel 0;
#X obj 998 179 t b b;
#X msg 588 38 set 0;
#X connect 0 0 1 0;
#X connect 2 0 0 0;
#X connect 4 0 3 0;
#X connect 6 0 5 0;
#X connect 7 0 2 0;
#X connect 8 0 13 0;
#X connect 9 0 12 0;
#X connect 10 0 11 0;
#X connect 15 0 14 0;
#X connect 16 0 41 0;
#X connect 17 0 32 0;
#X connect 18 0 17 0;
#X connect 18 0 42 0;
#X connect 19 0 33 0;
#X connect 20 0 19 0;
#X connect 20 0 42 0;
#X connect 21 0 34 0;
#X connect 22 0 21 0;
#X connect 22 0 42 0;
#X connect 23 0 24 0;
#X connect 23 0 26 0;
#X connect 26 0 18 0;
#X connect 26 1 20 0;
#X connect 26 2 22 0;
#X connect 26 3 28 0;
#X connect 26 4 30 0;
#X connect 27 0 35 0;
#X connect 28 0 27 0;
#X connect 28 0 42 0;
#X connect 29 0 36 0;
#X connect 30 0 29 0;
#X connect 30 0 42 0;
#X connect 32 0 31 0;
#X connect 33 0 37 0;
#X connect 34 0 38 0;
#X connect 35 0 39 0;
#X connect 36 0 40 0;
#X connect 42 0 43 0;
#X connect 43 0 44 0;
#X connect 43 1 16 0;
#X connect 44 0 18 0;
#X connect 44 0 22 0;
#X connect 44 0 28 0;
#X connect 44 0 30 0;
#X connect 44 0 20 0;
