#N canvas 1143 378 530 379 10;
#X obj 64 286 ossia.client;
#X obj 64 308 print;
#X msg 19 222 dump;
#X obj 64 225 loadbang;
#X msg 64 246 connect oscquery ws://nusmuk.local:8765;
#X obj 42 148 ossia.remote color;
#X msg 42 123 0 0 0 \$1;
#X obj 42 105 tgl 15 0 empty empty empty 17 7 0 10 -262144 -1 -1 0
1;
#X msg 184 122 0 0 0 \$1;
#X obj 184 104 tgl 15 0 empty empty empty 17 7 0 10 -262144 -1 -1 0
1;
#X msg 340 122 0 0 0 \$1;
#X obj 340 104 tgl 15 0 empty empty empty 17 7 0 10 -262144 -1 -1 0
1;
#X obj 184 147 ossia.remote color.1;
#X obj 340 147 ossia.remote color.2;
#X obj 92 8 key;
#X floatatom 207 32 5 0 0 0 - - -, f 5;
#X msg 340 169 set \$4;
#X msg 190 169 set \$4;
#X msg 40 169 set \$4;
#X obj 92 30 sel 105 111 112;
#X connect 0 0 1 0;
#X connect 2 0 0 0;
#X connect 3 0 4 0;
#X connect 4 0 0 0;
#X connect 5 0 18 0;
#X connect 6 0 5 0;
#X connect 7 0 6 0;
#X connect 8 0 12 0;
#X connect 9 0 8 0;
#X connect 10 0 13 0;
#X connect 11 0 10 0;
#X connect 12 0 17 0;
#X connect 13 0 16 0;
#X connect 14 0 15 0;
#X connect 14 0 19 0;
#X connect 16 0 11 0;
#X connect 17 0 9 0;
#X connect 18 0 7 0;
#X connect 19 0 7 0;
#X connect 19 1 9 0;
#X connect 19 2 11 0;
