#N canvas 455 250 717 618 10;
#X obj 242 174 / 1000;
#X obj 242 110 bng 15 250 50 0 empty empty empty 17 7 0 10 -262144
-1 -1;
#X obj 202 331 delay;
#X obj 242 293 t f b f, f 16;
#X obj 255 399 pack 0 0;
#X msg 195 113 stop;
#X floatatom 255 441 5 0 0 0 - - -, f 5;
#X floatatom 365 288 5 0 0 0 - - -, f 5;
#X obj 242 225 *;
#X obj 242 132 random 1000;
#X obj 242 196 t a a;
#X obj 242 154 t a a;
#X obj 274 223 * 100;
#X obj 242 246 * 100;
#X obj 242 270 +;
#X obj 253 334 random 100;
#X obj 253 356 > 50;
#X obj 253 376 tgl 15 0 empty empty empty 17 7 0 10 -262144 -1 -1 0
1;
#X text 344 161 time factor;
#X text 542 196 %ON;
#X obj 538 217 nbx 5 14 0 100 0 1 empty empty empty 0 -8 0 10 -262144
-1 -1 43 256;
#X obj 366 181 nbx 5 14 0 100 0 1 empty empty empty 0 -8 0 10 -262144
-1 -1 37 256;
#X text 423 189 temps (ms) mini;
#X obj 426 204 nbx 5 14 0 1e+37 0 1 empty empty empty 0 -8 0 10 -262144
-1 -1 1000 256;
#X obj 448 111 unpack 0 0 0;
#X obj 255 487 outlet;
#X obj 198 65 sel 0 1;
#X obj 448 89 r noise_param;
#X obj 198 13 r noise_start;
#X obj 122 303 loadbang;
#X msg 122 325 set \$1;
#X obj 255 419 line 1, f 18;
#X obj 213 39 inlet;
#X connect 0 0 10 0;
#X connect 1 0 9 0;
#X connect 2 0 1 0;
#X connect 3 0 2 0;
#X connect 3 1 15 0;
#X connect 3 2 4 1;
#X connect 3 2 7 0;
#X connect 4 0 31 0;
#X connect 5 0 2 0;
#X connect 6 0 25 0;
#X connect 8 0 13 0;
#X connect 9 0 11 0;
#X connect 10 0 8 0;
#X connect 10 1 8 1;
#X connect 11 0 0 0;
#X connect 12 0 13 1;
#X connect 13 0 14 0;
#X connect 14 0 3 0;
#X connect 15 0 16 0;
#X connect 16 0 17 0;
#X connect 17 0 4 0;
#X connect 20 0 16 1;
#X connect 21 0 12 0;
#X connect 23 0 14 1;
#X connect 24 0 21 0;
#X connect 24 1 23 0;
#X connect 24 2 20 0;
#X connect 26 0 5 0;
#X connect 26 1 1 0;
#X connect 27 0 24 0;
#X connect 28 0 26 0;
#X connect 29 0 30 0;
#X connect 30 0 17 0;
#X connect 31 0 6 0;
#X connect 32 0 26 0;
