#N canvas 1216 361 555 655 10;
#X obj 106 457 osc/packOSC;
#X msg 136 527 connect 127.0.0.1 3616;
#X msg 47 529 disconnect;
#N canvas 0 93 469 306 srcpoint 0;
#X obj 31 218 pack 0 0 0 0 0 0 0 0;
#X obj 31 171 t b a;
#X obj 79 140 t b a;
#X obj 77 171 t b a;
#X obj 129 140 t b a;
#X obj 127 171 t b a;
#X obj 179 140 t b a;
#X obj 177 171 t b a;
#X msg 31 243 sendtyped /warping/src ffffffff \$1 \$2 \$3 \$4 \$5 \$6
\$7 \$8;
#X obj 31 13 nbx 5 14 -1e+37 1e+37 0 1 empty empty empty 0 -8 0 10
-262144 -1 -1 182 256;
#X obj 31 34 nbx 5 14 -1e+37 1e+37 0 1 empty empty empty 0 -8 0 10
-262144 -1 -1 227 256;
#X obj 111 14 nbx 5 14 -1e+37 1e+37 0 1 empty empty empty 0 -8 0 10
-262144 -1 -1 469.86 256;
#X obj 111 34 nbx 5 14 -1e+37 1e+37 0 1 empty empty empty 0 -8 0 10
-262144 -1 -1 227 256;
#X obj 111 64 nbx 5 14 -1e+37 1e+37 0 1 empty empty empty 0 -8 0 10
-262144 -1 -1 436 256;
#X obj 111 84 nbx 5 14 -1e+37 1e+37 0 1 empty empty empty 0 -8 0 10
-262144 -1 -1 363 256;
#X obj 31 64 nbx 5 14 -1e+37 1e+37 0 1 empty empty empty 0 -8 0 10
-262144 -1 -1 180 256;
#X obj 31 84 nbx 5 14 -1e+37 1e+37 0 1 empty empty empty 0 -8 0 10
-262144 -1 -1 377 256;
#X obj 31 265 outlet;
#X text 36 49 Set Souce points;
#X connect 0 0 8 0;
#X connect 1 0 0 0;
#X connect 1 1 0 1;
#X connect 2 0 0 0;
#X connect 2 1 0 2;
#X connect 3 0 0 0;
#X connect 3 1 0 3;
#X connect 4 0 0 0;
#X connect 4 1 0 4;
#X connect 5 0 0 0;
#X connect 5 1 0 5;
#X connect 6 0 0 0;
#X connect 6 1 0 6;
#X connect 7 0 0 0;
#X connect 7 1 0 7;
#X connect 8 0 17 0;
#X connect 9 0 0 0;
#X connect 10 0 1 0;
#X connect 11 0 2 0;
#X connect 12 0 3 0;
#X connect 13 0 4 0;
#X connect 14 0 5 0;
#X connect 15 0 6 0;
#X connect 16 0 7 0;
#X coords 0 -1 1 1 150 100 1 25 6;
#X restore 35 54 pd srcpoint;
#N canvas 0 119 469 306 srcpoint 0;
#X obj 31 218 pack 0 0 0 0 0 0 0 0;
#X obj 31 171 t b a;
#X obj 79 140 t b a;
#X obj 77 171 t b a;
#X obj 129 140 t b a;
#X obj 127 171 t b a;
#X obj 179 140 t b a;
#X obj 177 171 t b a;
#X obj 31 13 nbx 5 14 -1e+37 1e+37 0 1 empty empty empty 0 -8 0 10
-262144 -1 -1 497 256;
#X obj 31 34 nbx 5 14 -1e+37 1e+37 0 1 empty empty empty 0 -8 0 10
-262144 -1 -1 573 256;
#X obj 111 14 nbx 5 14 -1e+37 1e+37 0 1 empty empty empty 0 -8 0 10
-262144 -1 -1 1295 256;
#X obj 111 34 nbx 5 14 -1e+37 1e+37 0 1 empty empty empty 0 -8 0 10
-262144 -1 -1 590 256;
#X obj 111 64 nbx 5 14 -1e+37 1e+37 0 1 empty empty empty 0 -8 0 10
-262144 -1 -1 1483 256;
#X obj 111 84 nbx 5 14 -1e+37 1e+37 0 1 empty empty empty 0 -8 0 10
-262144 -1 -1 1199 256;
#X obj 31 64 nbx 5 14 -1e+37 1e+37 0 1 empty empty empty 0 -8 0 10
-262144 -1 -1 198 256;
#X obj 31 84 nbx 5 14 -1e+37 1e+37 0 1 empty empty empty 0 -8 0 10
-262144 -1 -1 1134 256;
#X obj 31 265 outlet;
#X msg 31 243 sendtyped /warping/dst ffffffff \$1 \$2 \$3 \$4 \$5 \$6
\$7 \$8;
#X text 36 49 Set Target points;
#X connect 0 0 17 0;
#X connect 1 0 0 0;
#X connect 1 1 0 1;
#X connect 2 0 0 0;
#X connect 2 1 0 2;
#X connect 3 0 0 0;
#X connect 3 1 0 3;
#X connect 4 0 0 0;
#X connect 4 1 0 4;
#X connect 5 0 0 0;
#X connect 5 1 0 5;
#X connect 6 0 0 0;
#X connect 6 1 0 6;
#X connect 7 0 0 0;
#X connect 7 1 0 7;
#X connect 8 0 0 0;
#X connect 9 0 1 0;
#X connect 10 0 2 0;
#X connect 11 0 3 0;
#X connect 12 0 4 0;
#X connect 13 0 5 0;
#X connect 14 0 6 0;
#X connect 15 0 7 0;
#X connect 17 0 16 0;
#X coords 0 -1 1 1 150 100 1 25 6;
#X restore 196 54 pd srcpoint;
#X obj 136 507 loadbang;
#N canvas 1038 430 870 322 line 0;
#X obj 65 39 nbx 5 14 0 255 0 1 empty empty empty 0 -8 0 10 -262144
-1 -1 140.33 256;
#X text 54 38 h;
#X text 54 58 s;
#X text 54 78 b;
#X text 54 98 a;
#X obj 46 246 pack 0 0 0 0;
#X obj 61 200 t b a;
#X obj 111 200 t b a;
#X obj 161 200 t b a;
#X obj 174 58 nbx 5 14 -1e+37 1e+37 0 1 empty empty empty 0 -8 0 10
-262144 -1 -1 46.2493 256;
#X obj 174 78 nbx 5 14 -1e+37 1e+37 0 1 empty empty empty 0 -8 0 10
-262144 -1 -1 0 256;
#X obj 174 98 nbx 5 14 -1e+37 1e+37 0 1 empty empty empty 0 -8 0 10
-262144 -1 -1 6.19 256;
#X obj 220 199 t b a;
#X obj 270 199 t b a;
#X text 133 77 vert.;
#X text 132 56 hori.;
#X text 131 99 width;
#X msg 46 298 sendtyped /line/hsba ffff \$1 \$2 \$3 \$4;
#X obj 65 59 nbx 5 14 0 255 0 1 empty empty empty 0 -8 0 10 -262144
-1 -1 0 256;
#X obj 65 79 nbx 5 14 0 255 0 1 empty empty empty 0 -8 0 10 -262144
-1 -1 255 256;
#X obj 65 99 nbx 5 14 0 255 0 1 empty empty empty 0 -8 0 10 -262144
-1 -1 0 256;
#X text 136 37 lines control;
#X obj 78 335 outlet;
#X obj 216 3 r reset;
#X obj 174 118 nbx 5 14 -1e+37 1e+37 0 1 empty empty empty 0 -8 0 10
-262144 -1 -1 0 256;
#X obj 315 198 t b a;
#X obj 174 138 nbx 5 14 -1e+37 1e+37 0 1 empty empty empty 0 -8 0 10
-262144 -1 -1 0 256;
#X text 131 139 amout;
#X text 131 119 speed;
#X obj 205 245 pack 0 0 0 0 0;
#X obj 365 198 t b a;
#X obj 277 108 nbx 5 14 0 255 0 1 empty empty empty 0 -8 0 10 -262144
-1 -1 1 256;
#X obj 495 196 t b a;
#X obj 545 196 t b a;
#X obj 277 128 nbx 5 14 0 255 0 1 empty empty empty 0 -8 0 10 -262144
-1 -1 1 256;
#X obj 277 148 nbx 5 14 -180 180 0 1 empty empty empty 0 -8 0 10 -262144
-1 -1 -90 256;
#X msg 480 294 sendtyped /line/sr fff \$1 \$2 \$3;
#X obj 480 242 pack 0 0 0;
#X text 250 148 rot.;
#X obj 755 179 ctlin;
#X floatatom 768 206 5 0 0 0 - - -, f 5;
#X obj 377 10 ctlin 79;
#X obj 377 32 * 2;
#X obj 451 6 ctlin 15;
#X obj 508 6 ctlin 31;
#X obj 564 28 * 2;
#X obj 564 6 ctlin 51;
#X obj 488 70 ctlin 16;
#X obj 545 70 ctlin 32;
#X obj 601 70 ctlin 52;
#X obj 488 92 / 10;
#X obj 545 92 / 10;
#X obj 602 113 - 0.5;
#X obj 451 28 / 4;
#X obj 710 42 line;
#X obj 684 140 ftom;
#X floatatom 688 114 5 0 0 0 - - -, f 5;
#X floatatom 684 162 5 0 0 0 - - -, f 5;
#X floatatom 710 86 15 0 0 0 - - -, f 15;
#X obj 710 64 mtof;
#X obj 230 37 bng 15 250 50 0 empty empty empty 17 7 0 10 -262144 -1
-1;
#X floatatom 476 152 5 0 0 0 - - -, f 5;
#X obj 510 27 / 12.7;
#X obj 602 91 / 128;
#X obj 545 115 + 1;
#X obj 488 114 + 1;
#X obj 602 135 * 180;
#X obj 277 70 bng 15 250 50 0 empty empty empty 17 7 0 10 -262144 -1
-1;
#X obj 639 250 line;
#X msg 639 228 0 \, 90 120000;
#X msg 625 179 0;
#X msg 711 16 94.5 \, 30 30000;
#X msg 204 267 sendtyped /line/hvwn fffff \$1 \$2 \$3 \$4 \$5;
#X connect 0 0 5 0;
#X connect 5 0 17 0;
#X connect 6 0 5 0;
#X connect 6 1 5 1;
#X connect 7 0 5 0;
#X connect 7 1 5 2;
#X connect 8 0 5 0;
#X connect 8 1 5 3;
#X connect 9 0 29 0;
#X connect 10 0 12 0;
#X connect 11 0 13 0;
#X connect 12 0 29 0;
#X connect 12 1 29 1;
#X connect 13 0 29 0;
#X connect 13 1 29 2;
#X connect 17 0 22 0;
#X connect 18 0 6 0;
#X connect 19 0 7 0;
#X connect 20 0 8 0;
#X connect 23 0 5 0;
#X connect 23 0 29 0;
#X connect 24 0 25 0;
#X connect 25 0 29 0;
#X connect 25 1 29 3;
#X connect 26 0 30 0;
#X connect 29 0 72 0;
#X connect 30 0 29 0;
#X connect 30 1 29 4;
#X connect 31 0 37 0;
#X connect 32 0 37 0;
#X connect 32 1 37 1;
#X connect 33 0 37 0;
#X connect 33 1 37 2;
#X connect 34 0 32 0;
#X connect 35 0 33 0;
#X connect 36 0 22 0;
#X connect 37 0 36 0;
#X connect 39 1 40 0;
#X connect 41 0 42 0;
#X connect 42 0 20 0;
#X connect 43 0 53 0;
#X connect 44 0 61 0;
#X connect 44 0 62 0;
#X connect 46 0 45 0;
#X connect 47 0 50 0;
#X connect 48 0 51 0;
#X connect 49 0 63 0;
#X connect 50 0 65 0;
#X connect 51 0 64 0;
#X connect 52 0 66 0;
#X connect 53 0 24 0;
#X connect 54 0 59 0;
#X connect 55 0 57 0;
#X connect 56 0 55 0;
#X connect 59 0 9 0;
#X connect 59 0 58 0;
#X connect 60 0 71 0;
#X connect 62 0 26 0;
#X connect 63 0 52 0;
#X connect 64 0 34 0;
#X connect 65 0 31 0;
#X connect 66 0 35 0;
#X connect 67 0 69 0;
#X connect 68 0 35 0;
#X connect 69 0 68 0;
#X connect 70 0 68 0;
#X connect 71 0 54 0;
#X connect 72 0 22 0;
#X coords 0 -1 1 1 300 140 2 50 35;
#X restore 35 161 pd line;
#N canvas 236 344 525 525 receive 1;
#X obj 156 70 osc/unpackOSC;
#X obj 156 90 osc/routeOSC /b;
#X obj 210 189 list prepend;
#X obj 210 211 list;
#X msg 292 162 bang;
#X obj 133 47 t b a b;
#X obj 133 303 list;
#X obj 26 430 unpack 0 0 0 0;
#X floatatom 16 471 5 0 0 0 - - -, f 5;
#X floatatom 56 471 5 0 0 0 - - -, f 5;
#X floatatom 96 471 5 0 0 0 - - -, f 5;
#X floatatom 136 471 5 0 0 0 - - -, f 5;
#X obj 133 374 outlet;
#X obj 133 17 iemnet/udpreceive 4848;
#X obj 429 443 route;
#X msg 210 156 \$1;
#X text 167 304 list des ids des blobs;
#X connect 0 0 1 0;
#X connect 1 0 15 0;
#X connect 2 0 3 0;
#X connect 3 0 2 1;
#X connect 3 0 6 1;
#X connect 4 0 2 1;
#X connect 5 0 6 0;
#X connect 5 1 0 0;
#X connect 5 2 4 0;
#X connect 6 0 7 0;
#X connect 6 0 12 0;
#X connect 7 0 8 0;
#X connect 7 1 9 0;
#X connect 7 2 10 0;
#X connect 7 3 11 0;
#X connect 13 0 5 0;
#X connect 15 0 2 0;
#X restore 379 189 pd receive distance;
#N canvas 1040 328 829 322 line 0;
#X obj 65 39 nbx 5 14 0 8 0 1 empty empty empty 0 -8 0 10 -262144 -1
-1 0 256;
#X text 54 58 h;
#X text 54 78 s;
#X text 54 98 b;
#X text 54 118 a;
#X obj 61 190 t b a;
#X obj 111 190 t b a;
#X obj 161 190 t b a;
#X obj 65 59 nbx 5 14 0 255 0 1 empty empty empty 0 -8 0 10 -262144
-1 -1 255 256;
#X obj 65 79 nbx 5 14 0 255 0 1 empty empty empty 0 -8 0 10 -262144
-1 -1 0 256;
#X obj 65 99 nbx 5 14 0 255 0 1 empty empty empty 0 -8 0 10 -262144
-1 -1 255 256;
#X obj 46 278 outlet;
#X text 63 146 blob color;
#X obj 46 236 pack 0 0 0 0 0;
#X obj 211 190 t b a;
#X obj 65 119 nbx 5 14 0 255 0 1 empty empty empty 0 -8 0 10 -262144
-1 -1 255 256;
#X text 49 38 id;
#X msg 46 258 sendtyped /blob/hsba iffff \$1 \$2 \$3 \$4 \$5;
#X connect 0 0 13 0;
#X connect 5 0 13 0;
#X connect 5 1 13 1;
#X connect 6 0 13 0;
#X connect 6 1 13 2;
#X connect 7 0 13 0;
#X connect 7 1 13 3;
#X connect 8 0 5 0;
#X connect 9 0 6 0;
#X connect 10 0 7 0;
#X connect 13 0 17 0;
#X connect 14 0 13 0;
#X connect 14 1 13 4;
#X connect 15 0 14 0;
#X connect 17 0 11 0;
#X coords 0 -1 1 1 150 130 1 50 35;
#X restore 418 310 pd line;
#N canvas 882 323 827 631 mapdistance2color 1;
#X obj -1 133 inlet;
#X obj 81 362 nosie;
#X text 383 320 un nosie par blob;
#X floatatom 94 81 5 0 0 0 - - -, f 5;
#X floatatom 134 81 5 0 0 0 - - -, f 5;
#X floatatom 174 81 5 0 0 0 - - -, f 5;
#X floatatom 73 432 5 0 0 0 - - -, f 5;
#X text 456 259 time factor;
#X text 614 258 %ON;
#X obj 610 279 nbx 5 14 0 100 0 1 empty empty empty 0 -8 0 10 -262144
-1 -1 43 256;
#X obj 478 279 nbx 5 14 0 100 0 1 empty empty empty 0 -8 0 10 -262144
-1 -1 37 256;
#X text 539 264 temps (ms) mini;
#X obj 542 279 nbx 5 14 0 1e+37 0 1 empty empty empty 0 -8 0 10 -262144
-1 -1 1000 256;
#X obj 522 349 pack 0 0 0;
#X obj 522 371 s noise_param;
#X obj 542 298 t b a;
#X obj 610 298 t b a;
#X obj 387 369 s noise_start;
#X obj 386 345 tgl 15 0 empty empty empty 17 7 0 10 -262144 -1 -1 0
1;
#X floatatom 143 432 5 0 0 0 - - -, f 5;
#X floatatom 203 432 5 0 0 0 - - -, f 5;
#X floatatom 263 432 5 0 0 0 - - -, f 5;
#X floatatom 214 81 5 0 0 0 - - -, f 5;
#X floatatom 254 81 5 0 0 0 - - -, f 5;
#X floatatom 294 81 5 0 0 0 - - -, f 5;
#X obj 64 50 unpack 0 0 0 0 0 0 0 0, f 39;
#X floatatom 334 81 5 0 0 0 - - -, f 5;
#X obj 319 185 nbx 5 14 0 255 0 1 empty empty empty 0 -8 0 10 -262144
-1 -1 255 256;
#X floatatom 52 79 5 0 0 0 - - -, f 5;
#X obj 27 213 route;
#X obj 47 133 f;
#X obj 47 109 bng 15 250 50 0 empty empty empty 17 7 0 10 -262144 -1
-1;
#X obj 67 213 route;
#X obj 87 133 f;
#X obj 87 109 bng 15 250 50 0 empty empty empty 17 7 0 10 -262144 -1
-1;
#X obj 107 213 route;
#X obj 127 133 f;
#X obj 127 109 bng 15 250 50 0 empty empty empty 17 7 0 10 -262144
-1 -1;
#X obj 147 213 route;
#X obj 167 133 f;
#X obj 167 109 bng 15 250 50 0 empty empty empty 17 7 0 10 -262144
-1 -1;
#X obj 27 270 delay 10000;
#X obj 139 359 nosie;
#X obj 201 358 nosie;
#X obj 261 360 nosie;
#X msg 27 292 0;
#X obj 67 290 delay 10000;
#X msg 67 312 0;
#X obj 107 270 delay 10000;
#X msg 107 312 0;
#X obj 147 290 delay 10000;
#X msg 147 312 0;
#X obj 47 156 t f b;
#X msg 74 179 1;
#X obj 87 156 t f b;
#X msg 114 179 1;
#X obj 127 156 t f b;
#X msg 154 179 1;
#X obj 167 156 t f b;
#X msg 194 179 1;
#X floatatom 9 367 5 0 0 0 - - -, f 5;
#X obj 64 410 * 255;
#X obj 133 410 * 255;
#X obj 193 410 * 255;
#X obj 253 410 * 255;
#X obj 33 590 outlet;
#X obj 28 486 pack 0 0;
#X msg 33 570 sendtyped /blob/hsba iffff \$1 \$2 \$2 \$2 \$2;
#X obj 102 487 pack 0 0;
#X obj 174 485 pack 0 0;
#X obj 253 482 pack 0 0;
#X obj 28 443 f;
#X obj 27 235 t b b;
#X obj 103 461 f;
#X obj 174 458 f;
#X obj 253 457 f;
#X obj 67 245 t b b;
#X obj 107 235 t b b;
#X obj 147 245 t b b;
#X connect 0 0 25 0;
#X connect 0 0 29 0;
#X connect 0 0 32 0;
#X connect 0 0 35 0;
#X connect 0 0 38 0;
#X connect 1 0 61 0;
#X connect 9 0 16 0;
#X connect 10 0 13 0;
#X connect 12 0 15 0;
#X connect 13 0 14 0;
#X connect 15 0 13 0;
#X connect 15 1 13 1;
#X connect 16 0 13 0;
#X connect 16 1 13 2;
#X connect 18 0 17 0;
#X connect 25 0 28 0;
#X connect 25 0 30 1;
#X connect 25 1 3 0;
#X connect 25 1 33 1;
#X connect 25 2 4 0;
#X connect 25 2 36 1;
#X connect 25 3 5 0;
#X connect 25 3 39 1;
#X connect 25 4 22 0;
#X connect 25 5 23 0;
#X connect 25 6 24 0;
#X connect 25 7 26 0;
#X connect 27 0 61 1;
#X connect 27 0 62 1;
#X connect 27 0 63 1;
#X connect 27 0 64 1;
#X connect 29 0 72 0;
#X connect 30 0 52 0;
#X connect 31 0 30 0;
#X connect 32 0 76 0;
#X connect 33 0 54 0;
#X connect 34 0 33 0;
#X connect 35 0 77 0;
#X connect 36 0 56 0;
#X connect 37 0 36 0;
#X connect 38 0 78 0;
#X connect 39 0 58 0;
#X connect 40 0 39 0;
#X connect 41 0 45 0;
#X connect 42 0 62 0;
#X connect 43 0 63 0;
#X connect 44 0 64 0;
#X connect 45 0 1 0;
#X connect 46 0 47 0;
#X connect 47 0 42 0;
#X connect 48 0 49 0;
#X connect 49 0 43 0;
#X connect 50 0 51 0;
#X connect 51 0 44 0;
#X connect 52 0 29 1;
#X connect 52 0 71 1;
#X connect 52 1 53 0;
#X connect 53 0 1 0;
#X connect 54 0 32 1;
#X connect 54 0 73 1;
#X connect 54 1 55 0;
#X connect 55 0 42 0;
#X connect 56 0 35 1;
#X connect 56 0 74 1;
#X connect 56 1 57 0;
#X connect 57 0 43 0;
#X connect 58 0 38 1;
#X connect 58 0 75 1;
#X connect 58 1 59 0;
#X connect 59 0 44 0;
#X connect 61 0 6 0;
#X connect 61 0 66 1;
#X connect 62 0 19 0;
#X connect 62 0 68 1;
#X connect 63 0 20 0;
#X connect 63 0 69 1;
#X connect 64 0 21 0;
#X connect 64 0 70 1;
#X connect 66 0 67 0;
#X connect 67 0 65 0;
#X connect 68 0 67 0;
#X connect 69 0 67 0;
#X connect 70 0 67 0;
#X connect 71 0 66 0;
#X connect 72 0 41 0;
#X connect 72 1 60 0;
#X connect 72 1 71 0;
#X connect 73 0 68 0;
#X connect 74 0 69 0;
#X connect 75 0 70 0;
#X connect 76 0 46 0;
#X connect 76 1 73 0;
#X connect 77 0 48 0;
#X connect 77 1 74 0;
#X connect 78 0 50 0;
#X connect 78 1 75 0;
#X restore 379 210 pd mapdistance2color;
#X obj 106 555 iemnet/udpsend;
#X obj 106 581 tgl 15 0 empty empty empty 17 7 0 10 -262144 -1 -1 1
1;
#X obj 106 479 spigot;
#N canvas 1046 396 757 409 line 0;
#X obj 54 39 nbx 5 14 -100 100 0 1 empty empty empty 0 -8 0 10 -262144
-1 -1 0 256;
#X obj 118 297 outlet;
#X text 63 136 blob distance;
#X text 63 146 mapping;
#X msg 195 224 sendtyped /blob/dist/scale f \$1;
#X text 56 38 scale;
#X text 83 77 s;
#X text 83 97 b;
#X text 83 117 a;
#X obj 90 178 t b a;
#X obj 140 178 t b a;
#X obj 190 178 t b a;
#X obj 54 78 nbx 5 14 0 255 0 1 empty empty empty 0 -8 0 10 -262144
-1 -1 0 256;
#X obj 54 98 nbx 5 14 0 255 0 1 empty empty empty 0 -8 0 10 -262144
-1 -1 255 256;
#X obj 54 118 nbx 5 14 0 255 0 1 empty empty empty 0 -8 0 10 -262144
-1 -1 254 256;
#X text 213 146 blob color;
#X obj 79 220 pack 0 0 0 0;
#X obj 54 58 nbx 5 14 0 255 0 1 empty empty empty 0 -8 0 10 -262144
-1 -1 167 256;
#X text 83 57 h;
#X msg 79 253 sendtyped /blob/dist/color ffff \$1 \$2 \$3 \$4;
#X obj 34 -32 r reset;
#X obj 267 42 ctlin 78;
#X obj 267 64 * 2;
#X obj 161 52 nbx 3 14 -10000 10000 0 1 empty empty empty 0 -8 0 10
-262144 -1 -1 1.98438 256;
#X text 325 62 h;
#X obj 161 72 nbx 3 14 0 255 0 1 empty empty empty 0 -8 0 10 -262144
-1 -1 0 256;
#X text 320 42 id;
#X text 159 37 noise;
#X msg 394 168 sendtyped /blob/noiseamount f \$1;
#X msg 409 191 sendtyped /blob/noisespeed f \$1;
#X obj 382 -24 ctlin 14;
#X obj 443 -24 ctlin 30;
#X obj 499 -24 ctlin 50;
#X obj 382 -3 / 64;
#X obj 499 -2 / 127;
#X obj 161 92 nbx 3 14 0 1 0 1 empty empty empty 0 -8 0 10 -262144
-1 -1 0 256;
#X msg 420 213 sendtyped /blob/noiseoffset f \$1;
#X obj 240 134 / 12700;
#X obj 499 47 -;
#X msg 499 21 1 \$1;
#X msg 416 237 sendtyped /blob/coloroffset f \$1;
#X obj 161 112 nbx 3 14 0 1 0 1 empty empty empty 0 -8 0 10 -262144
-1 -1 0 256;
#X obj 610 8 / 127;
#X floatatom 666 67 5 0 0 0 - - -, f 5;
#X obj 610 -15 ctlin 51;
#X text 120 51 amount;
#X text 127 71 speed;
#X text 122 91 offset;
#X text 125 113 color;
#X connect 0 0 4 0;
#X connect 4 0 1 0;
#X connect 9 0 16 0;
#X connect 9 1 16 1;
#X connect 10 0 16 0;
#X connect 10 1 16 2;
#X connect 11 0 16 0;
#X connect 11 1 16 3;
#X connect 12 0 9 0;
#X connect 13 0 10 0;
#X connect 14 0 11 0;
#X connect 16 0 19 0;
#X connect 17 0 16 0;
#X connect 19 0 1 0;
#X connect 20 0 16 0;
#X connect 20 0 0 0;
#X connect 21 0 22 0;
#X connect 22 0 14 0;
#X connect 23 0 28 0;
#X connect 25 0 37 0;
#X connect 28 0 1 0;
#X connect 29 0 1 0;
#X connect 30 0 33 0;
#X connect 31 0 25 0;
#X connect 32 0 34 0;
#X connect 33 0 23 0;
#X connect 34 0 39 0;
#X connect 35 0 36 0;
#X connect 36 0 1 0;
#X connect 37 0 29 0;
#X connect 38 0 35 0;
#X connect 39 0 38 0;
#X connect 40 0 1 0;
#X connect 41 0 40 0;
#X connect 42 0 41 0;
#X connect 44 0 42 0;
#X connect 44 1 43 0;
#X coords 0 -1 1 1 150 130 1 50 35;
#X restore 228 311 pd line;
#X obj 413 35 bng 50 250 50 0 empty empty empty 17 7 0 10 -262144 -1
-1;
#X obj 413 90 s reset;
#N canvas 730 355 542 322 line 0;
#X obj 94 39 nbx 5 14 -100 100 0 1 empty empty empty 0 -8 0 10 -262144
-1 -1 0 256;
#X obj 118 297 outlet;
#X text 63 146 mapping;
#X text 56 38 scale;
#X text 83 77 s;
#X text 83 97 b;
#X text 83 117 a;
#X obj 90 178 t b a;
#X obj 140 178 t b a;
#X obj 190 178 t b a;
#X obj 94 78 nbx 5 14 0 255 0 1 empty empty empty 0 -8 0 10 -262144
-1 -1 0 256;
#X obj 94 98 nbx 5 14 0 255 0 1 empty empty empty 0 -8 0 10 -262144
-1 -1 254 256;
#X obj 94 118 nbx 5 14 0 255 0 1 empty empty empty 0 -8 0 10 -262144
-1 -1 0 256;
#X obj 79 220 pack 0 0 0 0;
#X obj 94 58 nbx 5 14 0 255 0 1 empty empty empty 0 -8 0 10 -262144
-1 -1 186 256;
#X text 83 57 h;
#X obj 190 -16 r reset;
#X msg 79 253 sendtyped /blob/noise/color ffff \$1 \$2 \$3 \$4;
#X msg 195 224 sendtyped /blob/noise/scale f \$1;
#X floatatom 162 92 5 0 0 0 - - -, f 5;
#X msg 212 107 sendtyped /blob/noise/freq f \$1;
#X floatatom 161 54 5 0 0 0 - - -, f 5;
#X msg 210 129 sendtyped /blob/noise/speed f \$1;
#X text 63 136 perlin noise;
#X text 151 40 noise freq;
#X text 154 77 noise speed;
#X obj 253 -19 ctlin 13;
#X obj 313 2 / 64;
#X obj 314 -19 ctlin 29;
#X obj 370 -19 ctlin 49;
#X obj 369 2 * 2;
#X obj 253 2 / 640;
#X obj 429 3 * 2;
#X obj 430 -18 ctlin 77;
#X connect 0 0 18 0;
#X connect 7 0 13 0;
#X connect 7 1 13 1;
#X connect 8 0 13 0;
#X connect 8 1 13 2;
#X connect 9 0 13 0;
#X connect 9 1 13 3;
#X connect 10 0 7 0;
#X connect 11 0 8 0;
#X connect 12 0 9 0;
#X connect 13 0 17 0;
#X connect 14 0 13 0;
#X connect 16 0 13 0;
#X connect 16 0 18 0;
#X connect 16 0 21 0;
#X connect 16 0 19 0;
#X connect 17 0 1 0;
#X connect 18 0 1 0;
#X connect 19 0 22 0;
#X connect 20 0 1 0;
#X connect 21 0 20 0;
#X connect 22 0 1 0;
#X connect 26 0 31 0;
#X connect 27 0 19 0;
#X connect 28 0 27 0;
#X connect 29 0 30 0;
#X connect 30 0 11 0;
#X connect 31 0 21 0;
#X connect 32 0 12 0;
#X connect 33 0 32 0;
#X coords 0 -1 1 1 190 130 1 50 35;
#X restore 38 311 pd line;
#X connect 0 0 12 0;
#X connect 1 0 10 0;
#X connect 2 0 10 0;
#X connect 3 0 0 0;
#X connect 4 0 0 0;
#X connect 5 0 1 0;
#X connect 6 0 0 0;
#X connect 7 0 9 0;
#X connect 8 0 0 0;
#X connect 9 0 0 0;
#X connect 10 0 11 0;
#X connect 11 0 12 1;
#X connect 12 0 10 0;
#X connect 13 0 0 0;
#X connect 14 0 15 0;
#X connect 16 0 0 0;
