#N canvas 191 485 726 474 10;
#X obj 152 440 net/udpsend;
#X obj 152 372 osc/packOSC;
#X msg 182 412 connect 127.0.0.1 3616;
#X msg 93 414 disconnect;
#N canvas 0 93 469 306 srcpoint 0;
#X obj 31 218 pack 0 0 0 0 0 0 0 0;
#X obj 31 171 t b a;
#X obj 79 140 t b a;
#X obj 77 171 t b a;
#X obj 129 140 t b a;
#X obj 127 171 t b a;
#X obj 179 140 t b a;
#X obj 177 171 t b a;
#X msg 31 243 sendtyped /warping/src ffffffff \$1 \$2 \$3 \$4 \$5 \$6
\$7 \$8;
#X obj 31 13 nbx 5 14 -1e+37 1e+37 0 1 empty empty empty 0 -8 0 10
-262144 -1 -1 180 256;
#X obj 31 34 nbx 5 14 -1e+37 1e+37 0 1 empty empty empty 0 -8 0 10
-262144 -1 -1 227 256;
#X obj 111 14 nbx 5 14 -1e+37 1e+37 0 1 empty empty empty 0 -8 0 10
-262144 -1 -1 470 256;
#X obj 111 34 nbx 5 14 -1e+37 1e+37 0 1 empty empty empty 0 -8 0 10
-262144 -1 -1 227 256;
#X obj 111 64 nbx 5 14 -1e+37 1e+37 0 1 empty empty empty 0 -8 0 10
-262144 -1 -1 470 256;
#X obj 111 84 nbx 5 14 -1e+37 1e+37 0 1 empty empty empty 0 -8 0 10
-262144 -1 -1 377 256;
#X obj 31 64 nbx 5 14 -1e+37 1e+37 0 1 empty empty empty 0 -8 0 10
-262144 -1 -1 180 256;
#X obj 31 84 nbx 5 14 -1e+37 1e+37 0 1 empty empty empty 0 -8 0 10
-262144 -1 -1 377 256;
#X obj 31 265 outlet;
#X text 36 49 Set Souce points;
#X connect 0 0 8 0;
#X connect 1 0 0 0;
#X connect 1 1 0 1;
#X connect 2 0 0 0;
#X connect 2 1 0 2;
#X connect 3 0 0 0;
#X connect 3 1 0 3;
#X connect 4 0 0 0;
#X connect 4 1 0 4;
#X connect 5 0 0 0;
#X connect 5 1 0 5;
#X connect 6 0 0 0;
#X connect 6 1 0 6;
#X connect 7 0 0 0;
#X connect 7 1 0 7;
#X connect 8 0 17 0;
#X connect 9 0 0 0;
#X connect 10 0 1 0;
#X connect 11 0 2 0;
#X connect 12 0 3 0;
#X connect 13 0 4 0;
#X connect 14 0 5 0;
#X connect 15 0 6 0;
#X connect 16 0 7 0;
#X coords 0 -1 1 1 150 100 1 25 6;
#X restore 85 54 pd srcpoint;
#N canvas 0 106 469 306 srcpoint 0;
#X obj 31 218 pack 0 0 0 0 0 0 0 0;
#X obj 31 171 t b a;
#X obj 79 140 t b a;
#X obj 77 171 t b a;
#X obj 129 140 t b a;
#X obj 127 171 t b a;
#X obj 179 140 t b a;
#X obj 177 171 t b a;
#X obj 31 13 nbx 5 14 -1e+37 1e+37 0 1 empty empty empty 0 -8 0 10
-262144 -1 -1 497 256;
#X obj 31 34 nbx 5 14 -1e+37 1e+37 0 1 empty empty empty 0 -8 0 10
-262144 -1 -1 573 256;
#X obj 111 14 nbx 5 14 -1e+37 1e+37 0 1 empty empty empty 0 -8 0 10
-262144 -1 -1 1295 256;
#X obj 111 34 nbx 5 14 -1e+37 1e+37 0 1 empty empty empty 0 -8 0 10
-262144 -1 -1 590 256;
#X obj 111 64 nbx 5 14 -1e+37 1e+37 0 1 empty empty empty 0 -8 0 10
-262144 -1 -1 1483 256;
#X obj 111 84 nbx 5 14 -1e+37 1e+37 0 1 empty empty empty 0 -8 0 10
-262144 -1 -1 1199 256;
#X obj 31 64 nbx 5 14 -1e+37 1e+37 0 1 empty empty empty 0 -8 0 10
-262144 -1 -1 198 256;
#X obj 31 84 nbx 5 14 -1e+37 1e+37 0 1 empty empty empty 0 -8 0 10
-262144 -1 -1 1134 256;
#X obj 31 265 outlet;
#X msg 31 243 sendtyped /warping/dst ffffffff \$1 \$2 \$3 \$4 \$5 \$6
\$7 \$8;
#X text 36 49 Set Target points;
#X connect 0 0 17 0;
#X connect 1 0 0 0;
#X connect 1 1 0 1;
#X connect 2 0 0 0;
#X connect 2 1 0 2;
#X connect 3 0 0 0;
#X connect 3 1 0 3;
#X connect 4 0 0 0;
#X connect 4 1 0 4;
#X connect 5 0 0 0;
#X connect 5 1 0 5;
#X connect 6 0 0 0;
#X connect 6 1 0 6;
#X connect 7 0 0 0;
#X connect 7 1 0 7;
#X connect 8 0 0 0;
#X connect 9 0 1 0;
#X connect 10 0 2 0;
#X connect 11 0 3 0;
#X connect 12 0 4 0;
#X connect 13 0 5 0;
#X connect 14 0 6 0;
#X connect 15 0 7 0;
#X connect 17 0 16 0;
#X coords 0 -1 1 1 150 100 1 25 6;
#X restore 246 52 pd srcpoint;
#X obj 182 392 loadbang;
#X connect 1 0 0 0;
#X connect 2 0 0 0;
#X connect 3 0 0 0;
#X connect 4 0 1 0;
#X connect 5 0 1 0;
#X connect 6 0 2 0;
