#N canvas 43 217 555 655 10;
#X obj 106 457 osc/packOSC;
#X msg 136 527 connect 127.0.0.1 3616;
#X msg 47 529 disconnect;
#N canvas 0 93 469 306 srcpoint 0;
#X obj 31 218 pack 0 0 0 0 0 0 0 0;
#X obj 31 171 t b a;
#X obj 79 140 t b a;
#X obj 77 171 t b a;
#X obj 129 140 t b a;
#X obj 127 171 t b a;
#X obj 179 140 t b a;
#X obj 177 171 t b a;
#X msg 31 243 sendtyped /warping/src ffffffff \$1 \$2 \$3 \$4 \$5 \$6
\$7 \$8;
#X obj 31 13 nbx 5 14 -1e+37 1e+37 0 1 empty empty empty 0 -8 0 10
-262144 -1 -1 182 256;
#X obj 31 34 nbx 5 14 -1e+37 1e+37 0 1 empty empty empty 0 -8 0 10
-262144 -1 -1 227 256;
#X obj 111 14 nbx 5 14 -1e+37 1e+37 0 1 empty empty empty 0 -8 0 10
-262144 -1 -1 469.86 256;
#X obj 111 34 nbx 5 14 -1e+37 1e+37 0 1 empty empty empty 0 -8 0 10
-262144 -1 -1 227 256;
#X obj 111 64 nbx 5 14 -1e+37 1e+37 0 1 empty empty empty 0 -8 0 10
-262144 -1 -1 436 256;
#X obj 111 84 nbx 5 14 -1e+37 1e+37 0 1 empty empty empty 0 -8 0 10
-262144 -1 -1 363 256;
#X obj 31 64 nbx 5 14 -1e+37 1e+37 0 1 empty empty empty 0 -8 0 10
-262144 -1 -1 180 256;
#X obj 31 84 nbx 5 14 -1e+37 1e+37 0 1 empty empty empty 0 -8 0 10
-262144 -1 -1 377 256;
#X obj 31 265 outlet;
#X text 36 49 Set Souce points;
#X connect 0 0 8 0;
#X connect 1 0 0 0;
#X connect 1 1 0 1;
#X connect 2 0 0 0;
#X connect 2 1 0 2;
#X connect 3 0 0 0;
#X connect 3 1 0 3;
#X connect 4 0 0 0;
#X connect 4 1 0 4;
#X connect 5 0 0 0;
#X connect 5 1 0 5;
#X connect 6 0 0 0;
#X connect 6 1 0 6;
#X connect 7 0 0 0;
#X connect 7 1 0 7;
#X connect 8 0 17 0;
#X connect 9 0 0 0;
#X connect 10 0 1 0;
#X connect 11 0 2 0;
#X connect 12 0 3 0;
#X connect 13 0 4 0;
#X connect 14 0 5 0;
#X connect 15 0 6 0;
#X connect 16 0 7 0;
#X coords 0 -1 1 1 150 100 1 25 6;
#X restore 35 54 pd srcpoint;
#N canvas 0 119 469 306 srcpoint 0;
#X obj 31 218 pack 0 0 0 0 0 0 0 0;
#X obj 31 171 t b a;
#X obj 79 140 t b a;
#X obj 77 171 t b a;
#X obj 129 140 t b a;
#X obj 127 171 t b a;
#X obj 179 140 t b a;
#X obj 177 171 t b a;
#X obj 31 13 nbx 5 14 -1e+37 1e+37 0 1 empty empty empty 0 -8 0 10
-262144 -1 -1 497 256;
#X obj 31 34 nbx 5 14 -1e+37 1e+37 0 1 empty empty empty 0 -8 0 10
-262144 -1 -1 573 256;
#X obj 111 14 nbx 5 14 -1e+37 1e+37 0 1 empty empty empty 0 -8 0 10
-262144 -1 -1 1295 256;
#X obj 111 34 nbx 5 14 -1e+37 1e+37 0 1 empty empty empty 0 -8 0 10
-262144 -1 -1 590 256;
#X obj 111 64 nbx 5 14 -1e+37 1e+37 0 1 empty empty empty 0 -8 0 10
-262144 -1 -1 1483 256;
#X obj 111 84 nbx 5 14 -1e+37 1e+37 0 1 empty empty empty 0 -8 0 10
-262144 -1 -1 1199 256;
#X obj 31 64 nbx 5 14 -1e+37 1e+37 0 1 empty empty empty 0 -8 0 10
-262144 -1 -1 198 256;
#X obj 31 84 nbx 5 14 -1e+37 1e+37 0 1 empty empty empty 0 -8 0 10
-262144 -1 -1 1134 256;
#X obj 31 265 outlet;
#X msg 31 243 sendtyped /warping/dst ffffffff \$1 \$2 \$3 \$4 \$5 \$6
\$7 \$8;
#X text 36 49 Set Target points;
#X connect 0 0 17 0;
#X connect 1 0 0 0;
#X connect 1 1 0 1;
#X connect 2 0 0 0;
#X connect 2 1 0 2;
#X connect 3 0 0 0;
#X connect 3 1 0 3;
#X connect 4 0 0 0;
#X connect 4 1 0 4;
#X connect 5 0 0 0;
#X connect 5 1 0 5;
#X connect 6 0 0 0;
#X connect 6 1 0 6;
#X connect 7 0 0 0;
#X connect 7 1 0 7;
#X connect 8 0 0 0;
#X connect 9 0 1 0;
#X connect 10 0 2 0;
#X connect 11 0 3 0;
#X connect 12 0 4 0;
#X connect 13 0 5 0;
#X connect 14 0 6 0;
#X connect 15 0 7 0;
#X connect 17 0 16 0;
#X coords 0 -1 1 1 150 100 1 25 6;
#X restore 196 54 pd srcpoint;
#X obj 136 507 loadbang;
#N canvas 0 154 536 322 line 0;
#X obj 65 39 nbx 5 14 0 255 0 1 empty empty empty 0 -8 0 10 -262144
-1 -1 111 256;
#X text 54 38 h;
#X text 54 58 s;
#X text 54 78 b;
#X text 54 98 a;
#X obj 46 246 pack 0 0 0 0;
#X obj 61 200 t b a;
#X obj 111 200 t b a;
#X obj 161 200 t b a;
#X obj 174 58 nbx 5 14 -1e+37 1e+37 0 1 empty empty empty 0 -8 0 10
-262144 -1 -1 31 256;
#X obj 174 78 nbx 5 14 -1e+37 1e+37 0 1 empty empty empty 0 -8 0 10
-262144 -1 -1 0 256;
#X obj 174 98 nbx 5 14 -1e+37 1e+37 0 1 empty empty empty 0 -8 0 10
-262144 -1 -1 3.46 256;
#X obj 220 199 t b a;
#X obj 270 199 t b a;
#X text 133 77 vert.;
#X text 132 56 hori.;
#X text 131 99 width;
#X msg 46 298 sendtyped /line/hsba ffff \$1 \$2 \$3 \$4;
#X obj 65 59 nbx 5 14 0 255 0 1 empty empty empty 0 -8 0 10 -262144
-1 -1 22 256;
#X obj 65 79 nbx 5 14 0 255 0 1 empty empty empty 0 -8 0 10 -262144
-1 -1 255 256;
#X obj 65 99 nbx 5 14 0 255 0 1 empty empty empty 0 -8 0 10 -262144
-1 -1 255 256;
#X text 136 37 lines control;
#X obj 78 335 outlet;
#X obj 216 3 r reset;
#X obj 174 118 nbx 5 14 -1e+37 1e+37 0 1 empty empty empty 0 -8 0 10
-262144 -1 -1 0 256;
#X obj 315 198 t b a;
#X obj 174 138 nbx 5 14 -1e+37 1e+37 0 1 empty empty empty 0 -8 0 10
-262144 -1 -1 3.4 256;
#X text 131 139 amout;
#X text 131 119 speed;
#X obj 205 245 pack 0 0 0 0 0;
#X obj 365 198 t b a;
#X msg 204 267 sendtyped /line/hvwn iifff \$1 \$2 \$3 \$4 \$5;
#X connect 0 0 5 0;
#X connect 5 0 17 0;
#X connect 6 0 5 0;
#X connect 6 1 5 1;
#X connect 7 0 5 0;
#X connect 7 1 5 2;
#X connect 8 0 5 0;
#X connect 8 1 5 3;
#X connect 9 0 29 0;
#X connect 10 0 12 0;
#X connect 11 0 13 0;
#X connect 12 0 29 0;
#X connect 12 1 29 1;
#X connect 13 0 29 0;
#X connect 13 1 29 2;
#X connect 17 0 22 0;
#X connect 18 0 6 0;
#X connect 19 0 7 0;
#X connect 20 0 8 0;
#X connect 23 0 5 0;
#X connect 23 0 29 0;
#X connect 24 0 25 0;
#X connect 25 0 29 0;
#X connect 25 1 29 3;
#X connect 26 0 30 0;
#X connect 29 0 31 0;
#X connect 30 0 29 0;
#X connect 30 1 29 4;
#X connect 31 0 22 0;
#X coords 0 -1 1 1 300 140 2 50 35;
#X restore 35 161 pd line;
#N canvas 1298 352 525 525 receive 0;
#X obj 156 70 osc/unpackOSC;
#X obj 156 90 osc/routeOSC /b;
#X msg 210 127 \$11;
#X obj 210 189 list prepend;
#X obj 210 211 list;
#X msg 292 162 bang;
#X obj 133 47 t b a b;
#X obj 133 303 list;
#X text 167 304 list des distances des blobs;
#X obj 26 430 unpack 0 0 0 0;
#X floatatom 16 471 5 0 0 0 - - -, f 5;
#X floatatom 56 471 5 0 0 0 - - -, f 5;
#X floatatom 96 471 5 0 0 0 - - -, f 5;
#X floatatom 136 471 5 0 0 0 - - -, f 5;
#X obj 133 374 outlet;
#X obj 133 17 iemnet/udpreceive 4848;
#X connect 0 0 1 0;
#X connect 1 0 2 0;
#X connect 2 0 3 0;
#X connect 3 0 4 0;
#X connect 4 0 3 1;
#X connect 4 0 7 1;
#X connect 5 0 3 1;
#X connect 6 0 7 0;
#X connect 6 1 0 0;
#X connect 6 2 5 0;
#X connect 7 0 9 0;
#X connect 7 0 14 0;
#X connect 9 0 10 0;
#X connect 9 1 11 0;
#X connect 9 2 12 0;
#X connect 9 3 13 0;
#X connect 15 0 6 0;
#X restore 397 265 pd receive distance;
#N canvas 1088 344 450 322 line 0;
#X obj 65 39 nbx 5 14 0 8 0 1 empty empty empty 0 -8 0 10 -262144 -1
-1 0 256;
#X text 54 58 h;
#X text 54 78 s;
#X text 54 98 b;
#X text 54 118 a;
#X obj 61 190 t b a;
#X obj 111 190 t b a;
#X obj 161 190 t b a;
#X obj 65 59 nbx 5 14 0 255 0 1 empty empty empty 0 -8 0 10 -262144
-1 -1 95 256;
#X obj 65 79 nbx 5 14 0 255 0 1 empty empty empty 0 -8 0 10 -262144
-1 -1 0 256;
#X obj 65 99 nbx 5 14 0 255 0 1 empty empty empty 0 -8 0 10 -262144
-1 -1 255 256;
#X obj 46 278 outlet;
#X text 63 146 blob color;
#X obj 279 15 inlet;
#X obj 46 236 pack 0 0 0 0 0;
#X obj 211 190 t b a;
#X obj 65 119 nbx 5 14 0 255 0 1 empty empty empty 0 -8 0 10 -262144
-1 -1 255 256;
#X text 49 38 id;
#X obj 279 37 unpack;
#X msg 177 76 set \$1;
#X msg 46 258 sendtyped /blob/hsba iffff \$1 \$2 \$3 \$4 \$5;
#X connect 0 0 14 0;
#X connect 5 0 14 0;
#X connect 5 1 14 1;
#X connect 6 0 14 0;
#X connect 6 1 14 2;
#X connect 7 0 14 0;
#X connect 7 1 14 3;
#X connect 8 0 5 0;
#X connect 9 0 6 0;
#X connect 10 0 7 0;
#X connect 13 0 18 0;
#X connect 14 0 20 0;
#X connect 15 0 14 0;
#X connect 15 1 14 4;
#X connect 16 0 15 0;
#X connect 18 0 0 0;
#X connect 18 1 14 4;
#X connect 18 1 19 0;
#X connect 19 0 16 0;
#X connect 20 0 11 0;
#X coords 0 -1 1 1 100 130 1 50 35;
#X restore 238 310 pd line;
#N canvas 997 511 727 448 mapdistance2color 0;
#X obj 63 18 inlet;
#X obj 63 417 outlet;
#X obj 63 139 sel 0;
#X obj 63 167 f;
#X obj 81 260 nosie;
#X text 383 320 un nosie par blob;
#X floatatom 93 111 5 0 0 0 - - -, f 5;
#X floatatom 133 111 5 0 0 0 - - -, f 5;
#X floatatom 173 111 5 0 0 0 - - -, f 5;
#X floatatom 63 189 5 0 0 0 - - -, f 5;
#X obj 63 320 * 2;
#X floatatom 73 342 5 0 0 0 - - -, f 5;
#X obj 63 298 * 1;
#X text 456 259 time factor;
#X text 614 258 %ON;
#X obj 610 279 nbx 5 14 0 100 0 1 empty empty empty 0 -8 0 10 -262144
-1 -1 43 256;
#X obj 478 279 nbx 5 14 0 100 0 1 empty empty empty 0 -8 0 10 -262144
-1 -1 37 256;
#X text 539 264 temps (ms) mini;
#X obj 542 279 nbx 5 14 0 1e+37 0 1 empty empty empty 0 -8 0 10 -262144
-1 -1 1000 256;
#X obj 522 349 pack 0 0 0;
#X obj 522 371 s noise_param;
#X obj 542 298 t b a;
#X obj 610 298 t b a;
#X obj 387 369 s noise_start;
#X obj 386 345 tgl 15 0 empty empty empty 17 7 0 10 -262144 -1 -1 0
1;
#X obj 151 260 nosie;
#X obj 133 320 * 2;
#X floatatom 143 342 5 0 0 0 - - -, f 5;
#X obj 133 298 * 1;
#X obj 211 260 nosie;
#X obj 193 320 * 2;
#X floatatom 203 342 5 0 0 0 - - -, f 5;
#X obj 193 298 * 1;
#X obj 271 260 nosie;
#X obj 253 320 * 2;
#X floatatom 263 342 5 0 0 0 - - -, f 5;
#X obj 253 298 * 1;
#X msg 63 382 0 \$1;
#X msg 133 382 1 \$1;
#X msg 193 382 2 \$1;
#X msg 253 382 3 \$1;
#X floatatom 213 111 5 0 0 0 - - -, f 5;
#X floatatom 253 111 5 0 0 0 - - -, f 5;
#X floatatom 293 111 5 0 0 0 - - -, f 5;
#X obj 63 80 unpack 0 0 0 0 0 0 0 0, f 39;
#X floatatom 333 111 5 0 0 0 - - -, f 5;
#X obj 319 185 nbx 5 14 0 100 0 1 empty empty empty 0 -8 0 10 -262144
-1 -1 0 256;
#X connect 0 0 44 0;
#X connect 2 0 3 0;
#X connect 2 1 3 0;
#X connect 3 0 9 0;
#X connect 4 0 12 1;
#X connect 6 0 28 0;
#X connect 7 0 32 0;
#X connect 8 0 36 0;
#X connect 9 0 12 0;
#X connect 10 0 11 0;
#X connect 10 0 37 0;
#X connect 12 0 10 0;
#X connect 15 0 22 0;
#X connect 16 0 19 0;
#X connect 18 0 21 0;
#X connect 19 0 20 0;
#X connect 21 0 19 0;
#X connect 21 1 19 1;
#X connect 22 0 19 0;
#X connect 22 1 19 2;
#X connect 24 0 23 0;
#X connect 25 0 28 1;
#X connect 26 0 27 0;
#X connect 26 0 38 0;
#X connect 28 0 26 0;
#X connect 29 0 32 1;
#X connect 30 0 31 0;
#X connect 30 0 39 0;
#X connect 32 0 30 0;
#X connect 33 0 36 1;
#X connect 34 0 35 0;
#X connect 34 0 40 0;
#X connect 36 0 34 0;
#X connect 37 0 1 0;
#X connect 38 0 1 0;
#X connect 39 0 1 0;
#X connect 40 0 1 0;
#X connect 44 0 2 0;
#X connect 44 1 6 0;
#X connect 44 2 7 0;
#X connect 44 3 8 0;
#X connect 44 4 41 0;
#X connect 44 5 42 0;
#X connect 44 6 43 0;
#X connect 44 7 45 0;
#X connect 46 0 10 1;
#X connect 46 0 26 1;
#X connect 46 0 30 1;
#X connect 46 0 34 1;
#X restore 397 286 pd mapdistance2color;
#X obj 106 555 iemnet/udpsend;
#X obj 106 581 tgl 15 0 empty empty empty 17 7 0 10 -262144 -1 -1 1
1;
#X obj 106 479 spigot;
#X obj 397 317 spigot;
#X obj 439 317 tgl 15 0 empty empty empty 17 7 0 10 -262144 -1 -1 0
1;
#N canvas 1371 402 450 322 line 0;
#X obj 94 39 nbx 5 14 -100 100 0 1 empty empty empty 0 -8 0 10 -262144
-1 -1 4 256;
#X obj 118 297 outlet;
#X text 63 136 blob distance;
#X text 63 146 mapping;
#X msg 195 224 sendtyped /blob/dist/scale f \$1;
#X text 56 38 scale;
#X text 83 77 s;
#X text 83 97 b;
#X text 83 117 a;
#X obj 90 178 t b a;
#X obj 140 178 t b a;
#X obj 190 178 t b a;
#X obj 94 78 nbx 5 14 0 255 0 1 empty empty empty 0 -8 0 10 -262144
-1 -1 64 256;
#X obj 94 98 nbx 5 14 0 255 0 1 empty empty empty 0 -8 0 10 -262144
-1 -1 0 256;
#X obj 94 118 nbx 5 14 0 255 0 1 empty empty empty 0 -8 0 10 -262144
-1 -1 255 256;
#X text 213 146 blob color;
#X obj 79 220 pack 0 0 0 0;
#X obj 94 58 nbx 5 14 0 255 0 1 empty empty empty 0 -8 0 10 -262144
-1 -1 134 256;
#X text 83 57 h;
#X msg 79 253 sendtyped /blob/dist/color ffff \$1 \$2 \$3 \$4;
#X obj 189 12 r reset;
#X connect 0 0 4 0;
#X connect 4 0 1 0;
#X connect 9 0 16 0;
#X connect 9 1 16 1;
#X connect 10 0 16 0;
#X connect 10 1 16 2;
#X connect 11 0 16 0;
#X connect 11 1 16 3;
#X connect 12 0 9 0;
#X connect 13 0 10 0;
#X connect 14 0 11 0;
#X connect 16 0 19 0;
#X connect 17 0 16 0;
#X connect 19 0 1 0;
#X connect 20 0 16 0;
#X connect 20 0 4 0;
#X coords 0 -1 1 1 100 130 1 50 35;
#X restore 138 311 pd line;
#X obj 413 35 bng 50 250 50 0 empty empty empty 17 7 0 10 -262144 -1
-1;
#X obj 413 90 s reset;
#N canvas 1467 314 450 322 line 0;
#X obj 94 39 nbx 5 14 -100 100 0 1 empty empty empty 0 -8 0 10 -262144
-1 -1 4 256;
#X obj 118 297 outlet;
#X text 63 146 mapping;
#X text 56 38 scale;
#X text 83 77 s;
#X text 83 97 b;
#X text 83 117 a;
#X obj 90 178 t b a;
#X obj 140 178 t b a;
#X obj 190 178 t b a;
#X obj 94 78 nbx 5 14 0 255 0 1 empty empty empty 0 -8 0 10 -262144
-1 -1 255 256;
#X obj 94 98 nbx 5 14 0 255 0 1 empty empty empty 0 -8 0 10 -262144
-1 -1 255 256;
#X obj 94 118 nbx 5 14 0 255 0 1 empty empty empty 0 -8 0 10 -262144
-1 -1 0 256;
#X text 213 146 blob color;
#X obj 79 220 pack 0 0 0 0;
#X obj 94 58 nbx 5 14 0 255 0 1 empty empty empty 0 -8 0 10 -262144
-1 -1 160 256;
#X text 83 57 h;
#X obj 189 12 r reset;
#X msg 79 253 sendtyped /blob/noise/color ffff \$1 \$2 \$3 \$4;
#X msg 195 224 sendtyped /blob/noise/scale f \$1;
#X floatatom 208 89 5 0 0 0 - - -, f 5;
#X msg 208 57 sendtyped /blob/noise/freq f \$1;
#X floatatom 208 39 5 0 0 0 - - -, f 5;
#X msg 208 107 sendtyped /blob/noise/speed f \$1;
#X text 63 136 perlin noise;
#X connect 0 0 19 0;
#X connect 7 0 14 0;
#X connect 7 1 14 1;
#X connect 8 0 14 0;
#X connect 8 1 14 2;
#X connect 9 0 14 0;
#X connect 9 1 14 3;
#X connect 10 0 7 0;
#X connect 11 0 8 0;
#X connect 12 0 9 0;
#X connect 14 0 18 0;
#X connect 15 0 14 0;
#X connect 17 0 14 0;
#X connect 17 0 19 0;
#X connect 18 0 1 0;
#X connect 19 0 1 0;
#X connect 20 0 23 0;
#X connect 21 0 1 0;
#X connect 22 0 21 0;
#X connect 23 0 1 0;
#X coords 0 -1 1 1 100 130 1 50 35;
#X restore 38 311 pd line;
#X connect 0 0 12 0;
#X connect 1 0 10 0;
#X connect 2 0 10 0;
#X connect 3 0 0 0;
#X connect 4 0 0 0;
#X connect 5 0 1 0;
#X connect 6 0 0 0;
#X connect 7 0 9 0;
#X connect 8 0 0 0;
#X connect 9 0 13 0;
#X connect 10 0 11 0;
#X connect 11 0 12 1;
#X connect 12 0 10 0;
#X connect 13 0 8 0;
#X connect 14 0 13 1;
#X connect 15 0 0 0;
#X connect 16 0 17 0;
#X connect 18 0 0 0;
