#N canvas 333 573 808 474 10;
#X obj 152 440 net/udpsend;
#X obj 152 372 osc/packOSC;
#X msg 182 412 connect 127.0.0.1 3616;
#X msg 93 414 disconnect;
#N canvas 0 93 469 306 srcpoint 0;
#X obj 31 218 pack 0 0 0 0 0 0 0 0;
#X obj 31 171 t b a;
#X obj 79 140 t b a;
#X obj 77 171 t b a;
#X obj 129 140 t b a;
#X obj 127 171 t b a;
#X obj 179 140 t b a;
#X obj 177 171 t b a;
#X msg 31 243 sendtyped /warping/src ffffffff \$1 \$2 \$3 \$4 \$5 \$6
\$7 \$8;
#X obj 31 13 nbx 5 14 -1e+37 1e+37 0 1 empty empty empty 0 -8 0 10
-262144 -1 -1 180 256;
#X obj 31 34 nbx 5 14 -1e+37 1e+37 0 1 empty empty empty 0 -8 0 10
-262144 -1 -1 227 256;
#X obj 111 14 nbx 5 14 -1e+37 1e+37 0 1 empty empty empty 0 -8 0 10
-262144 -1 -1 470 256;
#X obj 111 34 nbx 5 14 -1e+37 1e+37 0 1 empty empty empty 0 -8 0 10
-262144 -1 -1 227 256;
#X obj 111 64 nbx 5 14 -1e+37 1e+37 0 1 empty empty empty 0 -8 0 10
-262144 -1 -1 470 256;
#X obj 111 84 nbx 5 14 -1e+37 1e+37 0 1 empty empty empty 0 -8 0 10
-262144 -1 -1 377 256;
#X obj 31 64 nbx 5 14 -1e+37 1e+37 0 1 empty empty empty 0 -8 0 10
-262144 -1 -1 180 256;
#X obj 31 84 nbx 5 14 -1e+37 1e+37 0 1 empty empty empty 0 -8 0 10
-262144 -1 -1 377 256;
#X obj 31 265 outlet;
#X text 36 49 Set Souce points;
#X connect 0 0 8 0;
#X connect 1 0 0 0;
#X connect 1 1 0 1;
#X connect 2 0 0 0;
#X connect 2 1 0 2;
#X connect 3 0 0 0;
#X connect 3 1 0 3;
#X connect 4 0 0 0;
#X connect 4 1 0 4;
#X connect 5 0 0 0;
#X connect 5 1 0 5;
#X connect 6 0 0 0;
#X connect 6 1 0 6;
#X connect 7 0 0 0;
#X connect 7 1 0 7;
#X connect 8 0 17 0;
#X connect 9 0 0 0;
#X connect 10 0 1 0;
#X connect 11 0 2 0;
#X connect 12 0 3 0;
#X connect 13 0 4 0;
#X connect 14 0 5 0;
#X connect 15 0 6 0;
#X connect 16 0 7 0;
#X coords 0 -1 1 1 150 100 1 25 6;
#X restore 35 54 pd srcpoint;
#N canvas 0 119 469 306 srcpoint 0;
#X obj 31 218 pack 0 0 0 0 0 0 0 0;
#X obj 31 171 t b a;
#X obj 79 140 t b a;
#X obj 77 171 t b a;
#X obj 129 140 t b a;
#X obj 127 171 t b a;
#X obj 179 140 t b a;
#X obj 177 171 t b a;
#X obj 31 13 nbx 5 14 -1e+37 1e+37 0 1 empty empty empty 0 -8 0 10
-262144 -1 -1 497 256;
#X obj 31 34 nbx 5 14 -1e+37 1e+37 0 1 empty empty empty 0 -8 0 10
-262144 -1 -1 573 256;
#X obj 111 14 nbx 5 14 -1e+37 1e+37 0 1 empty empty empty 0 -8 0 10
-262144 -1 -1 1295 256;
#X obj 111 34 nbx 5 14 -1e+37 1e+37 0 1 empty empty empty 0 -8 0 10
-262144 -1 -1 590 256;
#X obj 111 64 nbx 5 14 -1e+37 1e+37 0 1 empty empty empty 0 -8 0 10
-262144 -1 -1 1483 256;
#X obj 111 84 nbx 5 14 -1e+37 1e+37 0 1 empty empty empty 0 -8 0 10
-262144 -1 -1 1199 256;
#X obj 31 64 nbx 5 14 -1e+37 1e+37 0 1 empty empty empty 0 -8 0 10
-262144 -1 -1 198 256;
#X obj 31 84 nbx 5 14 -1e+37 1e+37 0 1 empty empty empty 0 -8 0 10
-262144 -1 -1 1134 256;
#X obj 31 265 outlet;
#X msg 31 243 sendtyped /warping/dst ffffffff \$1 \$2 \$3 \$4 \$5 \$6
\$7 \$8;
#X text 36 49 Set Target points;
#X connect 0 0 17 0;
#X connect 1 0 0 0;
#X connect 1 1 0 1;
#X connect 2 0 0 0;
#X connect 2 1 0 2;
#X connect 3 0 0 0;
#X connect 3 1 0 3;
#X connect 4 0 0 0;
#X connect 4 1 0 4;
#X connect 5 0 0 0;
#X connect 5 1 0 5;
#X connect 6 0 0 0;
#X connect 6 1 0 6;
#X connect 7 0 0 0;
#X connect 7 1 0 7;
#X connect 8 0 0 0;
#X connect 9 0 1 0;
#X connect 10 0 2 0;
#X connect 11 0 3 0;
#X connect 12 0 4 0;
#X connect 13 0 5 0;
#X connect 14 0 6 0;
#X connect 15 0 7 0;
#X connect 17 0 16 0;
#X coords 0 -1 1 1 150 100 1 25 6;
#X restore 196 54 pd srcpoint;
#X obj 182 392 loadbang;
#N canvas 0 106 450 322 line 0;
#X obj 65 39 nbx 5 14 0 255 0 1 empty empty empty 0 -8 0 10 -262144
-1 -1 214 256;
#X text 54 38 h;
#X text 54 58 s;
#X text 54 78 b;
#X text 54 98 a;
#X obj 46 196 pack 0 0 0 0;
#X obj 61 150 t b a;
#X obj 111 150 t b a;
#X obj 161 150 t b a;
#X obj 174 58 nbx 5 14 -1e+37 1e+37 0 1 empty empty empty 0 -8 0 10
-262144 -1 -1 41 256;
#X obj 174 78 nbx 5 14 -1e+37 1e+37 0 1 empty empty empty 0 -8 0 10
-262144 -1 -1 0 256;
#X obj 174 98 nbx 5 14 -1e+37 1e+37 0 1 empty empty empty 0 -8 0 10
-262144 -1 -1 2 256;
#X obj 220 149 t b a;
#X obj 270 149 t b a;
#X text 133 77 vert.;
#X text 132 56 hori.;
#X text 131 99 width;
#X msg 46 248 sendtyped /line/hsba ffff \$1 \$2 \$3 \$4;
#X obj 65 59 nbx 5 14 0 255 0 1 empty empty empty 0 -8 0 10 -262144
-1 -1 63 256;
#X obj 65 79 nbx 5 14 0 255 0 1 empty empty empty 0 -8 0 10 -262144
-1 -1 255 256;
#X obj 65 99 nbx 5 14 0 255 0 1 empty empty empty 0 -8 0 10 -262144
-1 -1 255 256;
#X obj 205 195 pack 0 0 0;
#X msg 205 217 sendtyped /line/hvw iif \$1 \$2 \$3;
#X text 136 37 lines control;
#X obj 78 285 outlet;
#X connect 0 0 5 0;
#X connect 5 0 17 0;
#X connect 6 0 5 0;
#X connect 6 1 5 1;
#X connect 7 0 5 0;
#X connect 7 1 5 2;
#X connect 8 0 5 0;
#X connect 8 1 5 3;
#X connect 9 0 21 0;
#X connect 10 0 12 0;
#X connect 11 0 13 0;
#X connect 12 0 21 0;
#X connect 12 1 21 1;
#X connect 13 0 21 0;
#X connect 13 1 21 2;
#X connect 17 0 24 0;
#X connect 18 0 6 0;
#X connect 19 0 7 0;
#X connect 20 0 8 0;
#X connect 21 0 22 0;
#X connect 22 0 24 0;
#X coords 0 -1 1 1 200 80 1 50 35;
#X restore 355 74 pd line;
#N canvas 1301 419 525 525 receive 1;
#X obj 133 17 net/udpreceive 4848;
#X obj 156 70 osc/unpackOSC;
#X obj 156 90 osc/routeOSC /b;
#X msg 210 127 \$11;
#X obj 210 189 list prepend;
#X obj 210 211 list;
#X msg 356 186 bang;
#X obj 133 47 t b a b;
#X obj 133 303 list;
#X text 167 304 list des distances des blobs;
#X obj 133 347 list prepend set;
#X obj 133 369 list trim;
#X obj 26 430 unpack 0 0 0 0;
#X floatatom 16 471 5 0 0 0 - - -, f 5;
#X floatatom 56 471 5 0 0 0 - - -, f 5;
#X floatatom 96 471 5 0 0 0 - - -, f 5;
#X floatatom 136 471 5 0 0 0 - - -, f 5;
#X msg 133 391 1;
#X connect 0 0 7 0;
#X connect 1 0 2 0;
#X connect 2 0 3 0;
#X connect 3 0 4 0;
#X connect 4 0 5 0;
#X connect 5 0 4 1;
#X connect 5 0 8 1;
#X connect 6 0 4 1;
#X connect 7 0 8 0;
#X connect 7 1 1 0;
#X connect 7 2 6 0;
#X connect 8 0 10 0;
#X connect 8 0 12 0;
#X connect 10 0 11 0;
#X connect 11 0 17 0;
#X connect 12 0 13 0;
#X connect 12 1 14 0;
#X connect 12 2 15 0;
#X connect 12 3 16 0;
#X restore 603 25 pd receive distance;
#X connect 1 0 0 0;
#X connect 2 0 0 0;
#X connect 3 0 0 0;
#X connect 4 0 1 0;
#X connect 5 0 1 0;
#X connect 6 0 2 0;
#X connect 7 0 1 0;
